<?xml version="1.0" standalone="no"?>
<!DOCTYPE svg PUBLIC "-//W3C//DTD SVG 20010904//EN"
 "http://www.w3.org/TR/2001/REC-SVG-20010904/DTD/svg10.dtd">
<svg version="1.0" xmlns="http://www.w3.org/2000/svg"
 width="260.000000pt" height="260.000000pt" viewBox="0 0 260.000000 260.000000"
 preserveAspectRatio="xMidYMid meet">
<metadata>
Created by potrace 1.11, written by Peter Selinger 2001-2013
</metadata>
<g transform="translate(0.000000,260.000000) scale(0.100000,-0.100000)"
fill="#000000" stroke="none">
<path d="M1178 2580 c-122 -38 -207 -112 -261 -228 -67 -144 -38 -331 72 -447
84 -89 178 -130 301 -130 153 0 267 59 350 181 68 100 85 261 41 377 -76 197
-305 310 -503 247z m189 -246 c101 -48 123 -194 41 -271 -25 -23 -83 -49 -108
-48 -54 3 -90 19 -122 53 -66 67 -70 153 -11 223 49 58 131 75 200 43z"/>
<path d="M1175 1697 c-137 -46 -234 -143 -276 -276 -47 -151 -5 -311 111 -421
73 -70 142 -99 267 -115 49 -5 157 21 215 52 294 160 283 586 -19 735 -59 29
-77 33 -162 35 -60 2 -111 -2 -136 -10z m192 -248 c83 -40 117 -143 75 -224
-46 -89 -152 -118 -236 -65 -55 35 -79 80 -79 143 1 70 44 129 110 152 53 20
80 18 130 -6z"/>
<path d="M1201 820 c-23 -5 -72 -25 -107 -45 -134 -73 -212 -206 -212 -360 0
-242 193 -423 438 -410 212 11 377 179 385 394 8 227 -159 414 -382 426 -43 2
-98 0 -122 -5z m179 -262 c49 -34 72 -71 77 -125 13 -142 -135 -233 -254 -156
-139 90 -74 302 93 303 37 0 60 -6 84 -22z"/>
</g>
</svg>
